<?xml version="1.0" encoding="UTF-8" standalone="no"?>
<!-- Created with Inkscape (http://www.inkscape.org/) -->

<svg
   xmlns:dc="http://purl.org/dc/elements/1.1/"
   xmlns:cc="http://creativecommons.org/ns#"
   xmlns:rdf="http://www.w3.org/1999/02/22-rdf-syntax-ns#"
   xmlns:svg="http://www.w3.org/2000/svg"
   xmlns="http://www.w3.org/2000/svg"
   xmlns:sodipodi="http://sodipodi.sourceforge.net/DTD/sodipodi-0.dtd"
   xmlns:inkscape="http://www.inkscape.org/namespaces/inkscape"
   width="159mm"
   height="159mm"
   viewBox="0 0 159 159"
   version="1.1"
   id="svg540"
   inkscape:version="0.92.3 (2405546, 2018-03-11)"
   sodipodi:docname="swm2-cell.svg">
  <defs
     id="defs534" />
  <sodipodi:namedview
     id="base"
     pagecolor="#ffffff"
     bordercolor="#666666"
     borderopacity="1.0"
     inkscape:pageopacity="0.0"
     inkscape:pageshadow="2"
     inkscape:zoom="0.35"
     inkscape:cx="-131.84769"
     inkscape:cy="-22.614202"
     inkscape:document-units="mm"
     inkscape:current-layer="layer1"
     showgrid="false"
     fit-margin-top="0"
     fit-margin-left="0"
     fit-margin-right="0"
     fit-margin-bottom="0"
     inkscape:window-width="1920"
     inkscape:window-height="1045"
     inkscape:window-x="0"
     inkscape:window-y="35"
     inkscape:window-maximized="1" />
  <metadata
     id="metadata537">
    <rdf:RDF>
      <cc:Work
         rdf:about="">
        <dc:format>image/svg+xml</dc:format>
        <dc:type
           rdf:resource="http://purl.org/dc/dcmitype/StillImage" />
        <dc:title></dc:title>
      </cc:Work>
    </rdf:RDF>
  </metadata>
  <g
     inkscape:label="Layer 1"
     inkscape:groupmode="layer"
     id="layer1"
     transform="translate(-2.0007729,16.150009)">
    <g
       transform="matrix(0.14402623,0,0,0.14402623,-0.1377869,-6.1033928)"
       id="g5661"
       style="fill:#000000;stroke:#000000;stroke-opacity:1">
      <path
         inkscape:connector-curvature="0"
         transform="translate(0,-99.637817)"
         id="path3272"
         d="m 548.21875,259.90625 c -202.39429,0 -385.96315,82.18203 -519.125,214.875 -0.604286,0.61471 -1.197794,1.20821 -1.8125,1.8125 L 100.5,549.84375 102.34375,548 C 209.38282,441.39961 354.28387,372.823 514.875,364.4375 c 5.63517,-37.43712 17.91625,-72.68157 35.59375,-104.53125 -0.75091,-0.002 -1.49857,0 -2.25,0 z M 516.53125,468.125 c -132.66037,7.88695 -252.30957,64.96282 -340.9375,153.15625 -0.6147,0.60429 -1.23946,1.19779 -1.84375,1.8125 l 73.25,73.25 c 0.60429,-0.6147 1.22904,-1.22905 1.84375,-1.84375 76.8694,-76.41098 182.69562,-123.6875 299.375,-123.6875 2.29465,0 4.58889,0.0261 6.875,0.0625 -18.52942,-31.16152 -31.78651,-65.82299 -38.5625,-102.75 z"
         style="fill:#000000;stroke:#000000;stroke-opacity:1" />
      <path
         id="path3527"
         d="m 772.88576,772.77487 c 0,19.14244 -7.5043,36.52349 -19.70422,49.46481 -2.09396,27.31176 -19.39854,50.36352 -43.51988,60.75714 v 0.25526 c -29.45501,17.15184 -47.06527,46.43171 -52.42602,81.55315 h -27.23529 v -81.47678 c 0.18024,-25.39743 8.16922,-41.65951 24.91212,-51.69358 6.12466,-3.52288 11.69222,-7.55358 16.43733,-12.02019 12.42913,4.46661 23.42933,13.22001 30.42571,25.67602 1.45592,2.44903 4.05768,3.82858 6.63694,3.82858 1.24921,0 2.55239,-0.30632 3.72512,-0.99812 3.7297,-2.04457 5.05527,-6.68632 2.96121,-10.36205 h -0.0521 c -7.83677,-13.93902 -19.75361,-24.2247 -33.28358,-30.34935 6.94252,-10.67222 10.79787,-23.37985 10.61815,-38.64443 0,-0.0729 0.10418,-0.15212 0.10418,-0.25631 0,-6.89303 -1.01999,-13.60196 -2.85786,-19.91082 15.90264,-3.03768 29.91343,-11.10355 40.2261,-22.46768 2.85786,-3.13646 2.65115,-7.96252 -0.5126,-10.77099 -3.14093,-2.83098 -7.88614,-2.57926 -10.69462,0.48447 -8.98709,9.77798 -21.11054,16.46431 -34.89233,18.30217 -11.07647,-20.52188 -31.67482,-35.09446 -55.81857,-37.75019 1.60866,-13.01769 7.47722,-24.62895 16.30699,-33.4633 2.91182,-2.96121 2.91182,-7.79175 0,-10.72598 -2.96122,-2.9883 -7.86365,-2.9883 -10.82038,0 -11.30578,11.31464 -18.86384,26.4219 -20.75109,43.24576 -28.35875,-3.57248 -50.20631,-27.64434 -50.25569,-56.95108 0,-4.16104 -3.44652,-7.63006 -7.53118,-7.63006 -4.31388,0 -7.68403,3.46902 -7.68403,7.63006 0,4.95181 0.48552,9.67462 1.42904,14.32086 -10.74859,9.29715 -24.12135,13.99288 -37.52109,13.99288 -6.60995,0 -13.24689,-1.17284 -19.4974,-3.44652 0,0 -0.10419,-0.0208 -0.18025,-0.0521 -7.70652,-2.7816 -14.77928,-7.20768 -20.90393,-13.33233 -2.93433,-2.96132 -7.7829,-2.96132 -10.77099,0 -2.9883,2.96121 -2.9883,7.76935 0,10.75306 6.27739,6.25489 13.35025,11.10346 20.87685,14.59946 -1.5053,18.96272 -12.53238,35.27418 -27.94971,44.43652 -8.90614,-13.52998 -22.30588,-24.2471 -38.77019,-29.4821 -4.11165,-1.27608 -8.37145,0.94394 -9.67462,4.95192 -1.12335,4.00819 0.92101,8.27258 4.9789,9.52179 12.2269,3.87795 22.05427,11.40903 29.12254,21.00729 -4.74521,1.27608 -9.62065,1.96361 -14.80168,1.96361 0,0 0,0 -0.0833,0 h -0.84496 c -19.55127,0 -37.52087,7.78728 -50.58815,20.52647 -3.09166,2.93423 -3.16344,7.76039 -0.12607,10.74848 1.45133,1.53239 3.44652,2.29629 5.51349,2.29629 1.73899,0 3.64874,-0.71472 5.13164,-2.14344 10.36654,-10.11045 24.50319,-16.20811 40.07336,-16.20811 h 0.81787 0.0208 0.0833 c 36.64935,0 67.10195,-27.29375 71.87404,-62.6669 5.20801,1.12345 10.41154,1.73451 15.69592,1.73451 14.88264,0 29.89103,-4.61936 42.52229,-13.75919 4.61945,10.54178 11.92142,19.7536 20.77818,26.90283 -9.03648,11.13044 -14.34337,24.35046 -15.74531,37.87595 -3.80607,-0.61054 -7.80978,-0.94394 -11.81807,-0.94394 -11.4854,0 -23.15063,2.72763 -33.9981,8.52867 -3.72511,1.9682 -5.13153,6.58308 -3.16344,10.31267 1.37955,2.5254 4.05758,4.0083 6.78968,4.0083 1.24921,0 2.37266,-0.27818 3.46902,-0.92102 8.73101,-4.56997 17.87084,-6.74029 26.90284,-6.74029 4.03059,0 8.012,0.4355 11.81807,1.2492 1.65814,15.41733 8.32196,30.50209 19.78048,42.49988 1.53229,1.58615 3.49601,2.35016 5.46421,2.35016 1.86475,0 3.80148,-0.69181 5.31116,-2.09406 3.11405,-2.93433 3.19042,-7.71091 0.22921,-10.74859 h -0.0521 c -10.18692,-10.77089 -15.57017,-24.44922 -15.92503,-38.28488 0,-0.20629 0.0521,-0.35945 0,-0.58866 0,-0.27818 0,-0.56157 0,-0.84496 0,-13.4311 4.64633,-26.70498 13.83545,-37.37262 9.67473,4.82596 20.69743,7.63454 32.36693,7.63454 0,0 0.0521,0.0208 0.12607,0.0208 0,0 0.0521,0 0.12607,0 31.59845,0.10419 57.17571,25.63561 57.30156,57.22958 -5.99441,-1.58167 -12.17303,-2.39954 -18.50439,-2.39954 -9.05899,0 -18.2482,1.65814 -27.10496,5.31137 -3.93182,1.60875 -5.79667,6.0214 -4.21042,9.90383 1.60417,3.87786 5.97181,5.76969 9.87675,4.18792 7.09526,-2.83088 14.32086,-4.21042 21.43863,-4.21042 5.7427,0 11.43601,0.86684 16.76988,2.5254 -1.86485,8.52419 -5.51359,15.36335 -11.17992,21.43862 -0.4355,0.38133 -0.84496,0.81787 -1.17284,1.32558 -4.34075,4.26428 -9.54877,8.19172 -15.979,12.09656 -22.02728,12.86505 -32.59615,36.1954 -32.36694,64.78784 v 81.47668 h -25.98608 v -77.46786 c 0,-28.45762 -17.83927,-55.44578 -40.30258,-65.04394 -10.7215,-4.16103 -21.90142,-11.13054 -30.04366,-20.24338 -11.61126,7.88614 -25.55027,12.53248 -40.53616,12.53248 -15.03538,0 -28.96981,-4.56997 -40.5047,-12.40215 -11.4855,7.55369 -25.34804,11.97071 -40.17213,11.97071 -40.76985,0.005 -73.72086,-33.02748 -73.72086,-73.73878 0,-30.4302 18.40094,-56.54215 44.74658,-67.77594 7.12224,-32.47477 35.88524,-56.77136 70.49439,-56.77136 1.83786,0 3.52309,0.15212 5.23499,0.2563 13.04478,-19.06607 34.96871,-31.57615 59.80446,-31.57615 12.30338,0 23.84265,3.06456 33.97559,8.52429 11.43164,-7.60307 25.10998,-12.01571 39.83519,-12.01571 18.91333,0 36.14164,7.37833 49.05598,19.34914 5.41013,-1.30317 11.0002,-2.06707 16.84615,-2.06707 29.226,0 54.49309,17.58776 65.77627,42.77848 29.66181,8.98709 51.25328,36.50546 51.25328,69.07452 0,6.5337 -0.86684,12.83807 -2.47591,18.83697 9.24319,12.15491 14.80627,27.31614 14.80627,43.77597 z"
         inkscape:connector-curvature="0"
         style="fill:#000000;stroke:#000000;stroke-opacity:1" />
    </g>
    <g
       id="g1706"
       transform="matrix(0.98594848,0,0,0.98594848,1.2782361,0.79712605)">
      <path
         id="path1669"
         d="m 90.96779,56.728796 h 53.79855 V 2.9301913 Z"
         style="fill-opacity:0.3;stroke-width:2.68993044"
         inkscape:connector-curvature="0" />
      <path
         style="stroke-width:2.68993044"
         id="path1671"
         d="M 131.31675,16.379837 90.96779,56.728796 h 40.34896 z"
         inkscape:connector-curvature="0" />
    </g>
    <path
       inkscape:connector-curvature="0"
       style="fill:none;stroke-width:2.68993044"
       d="m 85.5879,-2.4496732 h 64.55833 V 62.10866 H 85.5879 Z"
       id="path1673" />
  </g>
</svg>
